<svg xmlns="http://www.w3.org/2000/svg" viewBox="0 0 34 48">
  <!-- 影 -->
  <rect x="2.4" y="3" width="29.6" height="43" rx="4" fill="#0000001f"/>
  <!-- 側面(厚み) -->
  <rect x="2" y="2.4" width="30" height="44" rx="4" fill="#d8d0bc"/>
  <!-- 面 -->
  <rect x="2" y="1.6" width="30" height="43.2" rx="4" fill="#f7f4ea" stroke="#b7a888" stroke-width="0.8"/>
  <!-- 面のハイライト -->
  <rect x="3.4" y="3" width="27.2" height="40" rx="3" fill="none" stroke="#ffffffcc" stroke-width="0.7"/>
  
  <ellipse cx="19" cy="27" rx="9" ry="6.4" fill="#12703f"/>
  <ellipse cx="11.6" cy="22.4" rx="5.4" ry="5" fill="#12703f"/>
  <path d="M10,25 Q14,24 16,28 Q14,30 19,30 Q13,31 10,28Z" fill="#12703f"/>
  <polygon points="6,22 10.6,20 10.6,25" fill="#d99a1c"/>
  <circle cx="9" cy="21" r="1.5" fill="#fff"/>
  <circle cx="9.1" cy="21" r="0.8" fill="#111"/>
  <ellipse cx="20" cy="26" rx="6.6" ry="3.6" fill="#0c5030" opacity="0.55" transform="rotate(-12,20,26)"/>
  <ellipse cx="18" cy="25" rx="3.6" ry="2.2" fill="#3ecf8e" opacity="0.4" transform="rotate(-12,18,25)"/>
  <path d="M27,26 C31,21 33.5,29 29,33 C28,30 27,26 27,26Z" fill="#0c5030"/>
  <path d="M27,27 C30,24 31,30 28,32 C27.5,30 27,27 27,27Z" fill="#12703f"/>
  <line x1="16" y1="33" x2="14" y2="40" stroke="#0c5030" stroke-width="1.6" stroke-linecap="round"/>
  <line x1="14" y1="40" x2="11" y2="42" stroke="#0c5030" stroke-width="1.2" stroke-linecap="round"/>
  <line x1="14" y1="40" x2="15" y2="43" stroke="#0c5030" stroke-width="1.2" stroke-linecap="round"/>
  <line x1="20" y1="33" x2="22" y2="40" stroke="#0c5030" stroke-width="1.6" stroke-linecap="round"/>
  <line x1="22" y1="40" x2="19" y2="42" stroke="#0c5030" stroke-width="1.2" stroke-linecap="round"/>
  <line x1="22" y1="40" x2="24" y2="43" stroke="#0c5030" stroke-width="1.2" stroke-linecap="round"/>
</svg>