<svg xmlns="http://www.w3.org/2000/svg" viewBox="0 0 34 48">
  <!-- 影 -->
  <rect x="2.4" y="3" width="29.6" height="43" rx="4" fill="#0000001f"/>
  <!-- 側面(厚み) -->
  <rect x="2" y="2.4" width="30" height="44" rx="4" fill="#d8d0bc"/>
  <!-- 面 -->
  <rect x="2" y="1.6" width="30" height="43.2" rx="4" fill="#f7f4ea" stroke="#b7a888" stroke-width="0.8"/>
  <!-- 面のハイライト -->
  <rect x="3.4" y="3" width="27.2" height="40" rx="3" fill="none" stroke="#ffffffcc" stroke-width="0.7"/>
  
  <path d="M825 538 742 422H35L45 390H941C958 390 970 395 973 406C918 458 825 538 825 538Z" transform="translate(17 17) scale(0.02 -0.02) translate(-504 -464)" fill="#1b2431"/>
  <path d="M32 743 39 714H298V633H316C367 633 410 647 410 657V714H582V637H600C654 638 696 652 696 661V714H940C955 714 965 719 968 730C930 766 865 817 865 817L806 743H696V810C722 814 730 823 731 837L582 850V743H410V810C436 814 444 823 445 837L298 850V743ZM697 470V385H556V470ZM697 498H556V582H697ZM308 470H446V385H308ZM308 498V582H446V498ZM605 216 595 210C613 193 630 170 644 145L556 143V236H778V42C778 29 773 23 757 23C733 23 634 29 634 29V16C683 8 705 -4 720 -18C736 -34 740 -57 743 -89C873 -78 892 -38 892 31V217C912 220 927 230 933 238L818 323L768 264H556V356H697V317H717C755 317 810 343 811 352V565C829 569 842 577 848 584L739 666L687 610H315L196 657V303H212C258 303 308 328 308 338V356H446V264H240L118 312V-89H135C181 -89 230 -64 230 -53V236H446V140C365 138 299 138 259 139L302 14C313 15 324 23 331 35C471 67 578 93 659 115C666 97 671 79 672 62C760 -5 843 173 605 216Z" transform="translate(17 35) scale(0.015 -0.015) translate(-500 -380.5)" fill="#b32519"/>
  
</svg>