<svg xmlns="http://www.w3.org/2000/svg" viewBox="0 0 60 80">
  <defs>
    <linearGradient id="bg" x1="0" y1="0" x2="0.2" y2="1">
      <stop offset="0%" stop-color="#FEFCF3"/>
      <stop offset="100%" stop-color="#EDE3C5"/>
    </linearGradient>
  </defs>
  <!-- Tile body -->
  <rect x="1" y="1" width="58" height="78" rx="6" fill="url(#bg)" stroke="#C9A84C" stroke-width="1.5"/>
  <!-- Top bevel -->
  <rect x="4" y="4" width="52" height="30" rx="4" fill="rgba(255,255,255,0.26)"/>
  
  <!-- Main stalk -->
  <rect x="26" y="8"  width="8" height="64" rx="4" fill="#15803D"/>
  <!-- Node bands -->
  <rect x="24" y="25" width="12" height="3" rx="1.5" fill="#166534"/>
  <rect x="24" y="46" width="12" height="3" rx="1.5" fill="#166534"/>
  <!-- Highlight -->
  <rect x="28" y="11" width="3" height="22" rx="1.5" fill="rgba(255,255,255,0.22)"/>
  <!-- Left leaves -->
  <ellipse cx="18" cy="20" rx="9" ry="5" fill="#16a34a" transform="rotate(-40 18 20)"/>
  <ellipse cx="16" cy="42" rx="9" ry="5" fill="#16a34a" transform="rotate(-50 16 42)"/>
  <!-- Right leaves -->
  <ellipse cx="42" cy="30" rx="9" ry="5" fill="#16a34a" transform="rotate(40 42 30)"/>
  <ellipse cx="44" cy="55" rx="9" ry="5" fill="#16a34a" transform="rotate(50 44 55)"/>
</svg>