<svg xmlns="http://www.w3.org/2000/svg" viewBox="0 0 60 80">
  <defs>
    <linearGradient id="bg" x1="0" y1="0" x2="0.2" y2="1">
      <stop offset="0%" stop-color="#FEFCF3"/>
      <stop offset="100%" stop-color="#EDE3C5"/>
    </linearGradient>
  </defs>
  <!-- Tile body -->
  <rect x="1" y="1" width="58" height="78" rx="6" fill="url(#bg)" stroke="#C9A84C" stroke-width="1.5"/>
  <!-- Top bevel -->
  <rect x="4" y="4" width="52" height="30" rx="4" fill="rgba(255,255,255,0.26)"/>
  <rect x="15"   y="12"  width="10"   height="23" rx="5" fill="#15803D"/>
  <rect x="14" y="22" width="12" height="3"    rx="1.5"     fill="#166534"/>
  <rect x="17" y="15" width="3" height="9" rx="2" fill="rgba(255,255,255,0.22)"/>
  <rect x="35"   y="12"  width="10"   height="23" rx="5" fill="#15803D"/>
  <rect x="34" y="22" width="12" height="3"    rx="1.5"     fill="#166534"/>
  <rect x="37" y="15" width="3" height="9" rx="2" fill="rgba(255,255,255,0.22)"/>
  <rect x="25"   y="31"  width="10"   height="20" rx="5" fill="#15803D"/>
  <rect x="24" y="40" width="12" height="3"    rx="1.5"     fill="#166534"/>
  <rect x="27" y="34" width="3" height="8" rx="2" fill="rgba(255,255,255,0.22)"/>
  <rect x="15"   y="52"  width="10"   height="23" rx="5" fill="#15803D"/>
  <rect x="14" y="62" width="12" height="3"    rx="1.5"     fill="#166534"/>
  <rect x="17" y="55" width="3" height="9" rx="2" fill="rgba(255,255,255,0.22)"/>
  <rect x="35"   y="52"  width="10"   height="23" rx="5" fill="#15803D"/>
  <rect x="34" y="62" width="12" height="3"    rx="1.5"     fill="#166534"/>
  <rect x="37" y="55" width="3" height="9" rx="2" fill="rgba(255,255,255,0.22)"/>
</svg>