<svg xmlns="http://www.w3.org/2000/svg" viewBox="0 0 60 80">
  <defs>
    <linearGradient id="bg" x1="0" y1="0" x2="0.2" y2="1">
      <stop offset="0%" stop-color="#FEFCF3"/>
      <stop offset="100%" stop-color="#EDE3C5"/>
    </linearGradient>
  </defs>
  <!-- Tile body -->
  <rect x="1" y="1" width="58" height="78" rx="6" fill="url(#bg)" stroke="#C9A84C" stroke-width="1.5"/>
  <!-- Top bevel -->
  <rect x="4" y="4" width="52" height="30" rx="4" fill="rgba(255,255,255,0.26)"/>
  <circle cx="13" cy="17" r="9"  fill="#1E40AF"/><circle cx="13" cy="17" r="5.2" fill="#DBEAFE"/><circle cx="13" cy="17" r="2.2" fill="#1E40AF"/>
  <circle cx="30" cy="17" r="9"  fill="#1E40AF"/><circle cx="30" cy="17" r="5.2" fill="#DBEAFE"/><circle cx="30" cy="17" r="2.2" fill="#1E40AF"/>
  <circle cx="47" cy="17" r="9"  fill="#1E40AF"/><circle cx="47" cy="17" r="5.2" fill="#DBEAFE"/><circle cx="47" cy="17" r="2.2" fill="#1E40AF"/>
  <circle cx="30" cy="38" r="9"  fill="#1E40AF"/><circle cx="30" cy="38" r="5.2" fill="#DBEAFE"/><circle cx="30" cy="38" r="2.2" fill="#1E40AF"/>
  <circle cx="13" cy="62" r="9"  fill="#1E40AF"/><circle cx="13" cy="62" r="5.2" fill="#DBEAFE"/><circle cx="13" cy="62" r="2.2" fill="#1E40AF"/>
  <circle cx="30" cy="62" r="9"  fill="#1E40AF"/><circle cx="30" cy="62" r="5.2" fill="#DBEAFE"/><circle cx="30" cy="62" r="2.2" fill="#1E40AF"/>
  <circle cx="47" cy="62" r="9"  fill="#1E40AF"/><circle cx="47" cy="62" r="5.2" fill="#DBEAFE"/><circle cx="47" cy="62" r="2.2" fill="#1E40AF"/>
</svg>