<svg xmlns="http://www.w3.org/2000/svg" viewBox="0 0 60 80">
  <defs>
    <linearGradient id="bg" x1="0" y1="0" x2="0.2" y2="1">
      <stop offset="0%" stop-color="#FEFCF3"/>
      <stop offset="100%" stop-color="#EDE3C5"/>
    </linearGradient>
  </defs>
  <!-- Tile body -->
  <rect x="1" y="1" width="58" height="78" rx="6" fill="url(#bg)" stroke="#C9A84C" stroke-width="1.5"/>
  <!-- Top bevel -->
  <rect x="4" y="4" width="52" height="30" rx="4" fill="rgba(255,255,255,0.26)"/>
  <rect x="8"   y="9"  width="10"   height="18" rx="5" fill="#15803D"/>
  <rect x="7" y="17" width="12" height="3"    rx="1.5"     fill="#166534"/>
  <rect x="10" y="12" width="3" height="7" rx="2" fill="rgba(255,255,255,0.22)"/>
  <rect x="25"   y="9"  width="10"   height="18" rx="5" fill="#15803D"/>
  <rect x="24" y="17" width="12" height="3"    rx="1.5"     fill="#166534"/>
  <rect x="27" y="12" width="3" height="7" rx="2" fill="rgba(255,255,255,0.22)"/>
  <rect x="42"   y="9"  width="10"   height="18" rx="5" fill="#15803D"/>
  <rect x="41" y="17" width="12" height="3"    rx="1.5"     fill="#166534"/>
  <rect x="44" y="12" width="3" height="7" rx="2" fill="rgba(255,255,255,0.22)"/>
  <rect x="8"   y="32"  width="10"   height="18" rx="5" fill="#15803D"/>
  <rect x="7" y="40" width="12" height="3"    rx="1.5"     fill="#166534"/>
  <rect x="10" y="35" width="3" height="7" rx="2" fill="rgba(255,255,255,0.22)"/>
  <rect x="25"   y="32"  width="10"   height="18" rx="5" fill="#15803D"/>
  <rect x="24" y="40" width="12" height="3"    rx="1.5"     fill="#166534"/>
  <rect x="27" y="35" width="3" height="7" rx="2" fill="rgba(255,255,255,0.22)"/>
  <rect x="42"   y="32"  width="10"   height="18" rx="5" fill="#15803D"/>
  <rect x="41" y="40" width="12" height="3"    rx="1.5"     fill="#166534"/>
  <rect x="44" y="35" width="3" height="7" rx="2" fill="rgba(255,255,255,0.22)"/>
  <rect x="8"   y="55"  width="10"   height="18" rx="5" fill="#15803D"/>
  <rect x="7" y="63" width="12" height="3"    rx="1.5"     fill="#166534"/>
  <rect x="10" y="58" width="3" height="7" rx="2" fill="rgba(255,255,255,0.22)"/>
  <rect x="25"   y="55"  width="10"   height="18" rx="5" fill="#15803D"/>
  <rect x="24" y="63" width="12" height="3"    rx="1.5"     fill="#166534"/>
  <rect x="27" y="58" width="3" height="7" rx="2" fill="rgba(255,255,255,0.22)"/>
  <rect x="42"   y="55"  width="10"   height="18" rx="5" fill="#15803D"/>
  <rect x="41" y="63" width="12" height="3"    rx="1.5"     fill="#166534"/>
  <rect x="44" y="58" width="3" height="7" rx="2" fill="rgba(255,255,255,0.22)"/>
</svg>